<?xml version="1.0" encoding="utf-8"?>
<!-- Uploaded to: SVG Repo, www.svgrepo.com, Generator: SVG Repo Mixer Tools -->
<svg width="800px" height="800px" viewBox="0 0 1024 1024" class="icon"  version="1.1" xmlns="http://www.w3.org/2000/svg"><path d="M952.256 781.44a38.08 38.08 0 0 1-38.144 38.08H109.76a38.08 38.08 0 0 1-38.08-38.08V233.856c0-21.056 17.088-38.144 38.08-38.144h804.352c21.056 0 38.144 17.088 38.144 38.144v547.584z" fill="#D94437" /><path d="M952.256 272.896h-152.704a19.008 19.008 0 0 0-19.072 19.072v431.36c0 10.496 8.512 19.072 19.072 19.072h152.704V272.896z" fill="#34464E" /><path d="M126.848 259.584h203.264v496H126.848z" fill="#FAF3DF" /><path d="M194.624 297.216h135.552v55.744H194.624zM194.624 392.768h135.552v55.744H194.624zM194.624 488.384h135.552v55.68H194.624zM194.624 625.472h135.552v55.616H194.624z" fill="#34464E" /><path d="M830.848 331.648h32.64v42.432h-32.64zM830.848 412.032h32.64v42.432h-32.64zM830.848 492.416h32.64v42.432h-32.64zM830.848 572.864h32.64v42.432h-32.64zM830.848 653.248h32.64v42.368h-32.64zM885.888 371.968h32.64v42.368h-32.64zM885.888 452.352h32.64v42.368h-32.64zM885.888 532.8h32.64v42.368h-32.64zM885.888 613.12h32.64v42.432h-32.64z" fill="#CECDBF" /><path d="M326.784 164.352h38.336v695.232h-38.336z" fill="#5B4037" /><path d="M365.12 148.032h38.336v728h-38.336z" fill="#9E867D" /><path d="M403.392 164.352h38.336v695.232h-38.336z" fill="#5B4037" /><path d="M441.728 148.032h38.336v728h-38.336z" fill="#9E867D" /><path d="M403.392 164.352h38.336v695.232h-38.336z" fill="#5B4037" /><path d="M441.728 148.032h38.336v728h-38.336z" fill="#9E867D" /><path d="M480.064 164.352H518.4v695.232h-38.336z" fill="#5B4037" /><path d="M518.4 148.032h38.336v728H518.4z" fill="#9E867D" /><path d="M556.672 164.352h38.336v695.232h-38.336z" fill="#5B4037" /><path d="M595.008 148.032h38.336v728h-38.336z" fill="#9E867D" /><path d="M633.344 164.352h38.336v695.232h-38.336z" fill="#5B4037" /><path d="M671.616 148.032h38.336v728h-38.336z" fill="#9E867D" /></svg>