<?xml version="1.0" encoding="utf-8"?>
<!-- Uploaded to: SVG Repo, www.svgrepo.com, Generator: SVG Repo Mixer Tools -->
<svg width="800px" height="800px" viewBox="0 0 1024 1024" class="icon"  version="1.1" xmlns="http://www.w3.org/2000/svg"><path d="M506.304 830.08c-1.408-1.28-2.944-2.432-4.288-3.84-29.632-30.592-19.328-88.704 22.976-129.728 40.128-38.976 79.872-63.936 110.656-38.72l27.392-29.76c49.728-48.32 54.656-124.032-7.36-187.904l-54.272-55.744c-62.016-63.872-137.792-61.184-187.52-12.864l-30.336 26.24a5.12 5.12 0 0 0 1.088 0.96c29.632 30.592 4.48 73.344-37.824 114.432-42.304 41.088-100.672 49.728-130.304 19.136a56.32 56.32 0 0 1-8.192-10.88l-92.8 80.384c-49.728 48.384-39.744 139.328 22.336 203.2l83.904 86.4c62.016 63.872 152.704 76.48 202.432 28.16l82.112-89.472z" fill="#F29417" /><path d="M782.656 206.912l55.36 56.96-333.12 333.952-65.344-67.136zM169.984 878.208l-18.944-18.688 122.176-145.984 40.768 40.128z" fill="#5B4037" /><path d="M867.84 114.56l65.344 67.584-129.6 125.248-65.344-67.584z" fill="#BA632B" /><path d="M880.832 203.648l41.792 43.264-25.088 24.192-41.728-43.264zM837.632 245.76l41.728 43.2-25.088 24.192-41.728-43.264zM818.24 103.936l41.792 43.264-24.96 24.128-41.856-43.264zM774.912 145.984l41.792 43.136-25.024 24.192-41.728-43.136z" fill="#5B4035" /><path d="M481.6 641.728l26.24 16.832-93.056 145.216-26.24-16.896zM252.608 647.04l-16.128-26.752 147.84-88.96 16.064 26.816z" fill="#3D2622" /></svg>