<?xml version="1.0" encoding="utf-8"?>
<!-- Uploaded to: SVG Repo, www.svgrepo.com, Generator: SVG Repo Mixer Tools -->
<svg width="800px" height="800px" viewBox="0 0 1024 1024" class="icon"  version="1.1" xmlns="http://www.w3.org/2000/svg"><path d="M85.056 191.808h873.536v404.16H85.056z" fill="" /><path d="M207.232 408.832h75.392v411.584H207.232zM316.736 408.832h75.392v411.584H316.736zM426.176 408.832h75.392v411.584H426.176zM682.24 408.832h75.392v411.584H682.24zM791.744 408.832h75.328v411.584h-75.328z" fill="" /><path d="M928.96 956.352H114.752a61.44 61.44 0 0 1-61.248-61.312V226.368a61.44 61.44 0 0 1 61.248-61.312h814.208a61.44 61.44 0 0 1 61.312 61.312v668.672c0 33.856-27.52 61.312-61.312 61.312zM114.752 202.624a23.808 23.808 0 0 0-23.744 23.808v668.672c0 13.12 10.688 23.808 23.744 23.808h814.208a23.872 23.872 0 0 0 23.808-23.808V226.368a23.872 23.872 0 0 0-23.808-23.808H114.752z" fill="" /><path d="M847.04 393.856m-55.296 0a55.296 55.296 0 1 0 110.592 0 55.296 55.296 0 1 0-110.592 0Z" fill="#F7F8F8" /><path d="M682.304 393.856m-55.296 0a55.296 55.296 0 1 0 110.592 0 55.296 55.296 0 1 0-110.592 0Z" fill="#F7F8F8" /><path d="M127.616 272.96h420.672v198.784H127.616z" fill="#FFFFFF" /><path d="M209.664 312.32h35.904v120.064h-35.904zM265.28 381.76h35.904v50.624h-35.904zM320.896 350.464h35.968v81.92h-35.968zM376.512 338.56h35.904v93.824h-35.904zM430.4 312.32h35.968v120.064h-35.968z" fill="" /></svg>