<?xml version="1.0" encoding="utf-8"?>
<!-- Uploaded to: SVG Repo, www.svgrepo.com, Generator: SVG Repo Mixer Tools -->
<svg width="800px" height="800px" viewBox="0 0 1024 1024" class="icon"  version="1.1" xmlns="http://www.w3.org/2000/svg"><path d="M952.7808 563.4048H172.3904c-26.5728 0-48.0768-21.504-48.0768-48.0768V340.0704c0-26.5728 21.504-48.0768 48.0768-48.0768h780.3904c26.5728 0 48.0768 21.504 48.0768 48.0768v175.2576c0 26.5728-21.5552 48.0768-48.0768 48.0768z" fill="#37B04A" /><path d="M906.6496 538.6752H218.5216c-7.936 0-14.3872-6.4512-14.3872-14.3872V342.016c0-7.936 6.4512-14.3872 14.3872-14.3872h688.128c7.936 0 14.3872 6.4512 14.3872 14.3872v182.272c0 7.9872-6.4512 14.3872-14.3872 14.3872z" fill="#F1F8F0" /><path d="M282.4704 462.592h-27.9552c-2.9696 0-5.376-2.4064-5.376-5.376V327.68h38.7584v129.536c0 2.9696-2.4576 5.376-5.4272 5.376zM351.488 462.592h-27.9552c-2.9696 0-5.376-2.4064-5.376-5.376V327.68h38.7584v129.536c-0.0512 2.9696-2.4576 5.376-5.4272 5.376zM422.8096 462.592h-27.9552c-2.9696 0-5.376-2.4064-5.376-5.376V327.68h38.7584v129.536c-0.0512 2.9696-2.4576 5.376-5.4272 5.376zM724.1216 462.592h-27.9552c-2.9696 0-5.376-2.4064-5.376-5.376V327.68h38.7584v129.536c-0.0512 2.9696-2.4576 5.376-5.4272 5.376zM793.1392 462.592h-27.9552c-2.9696 0-5.376-2.4064-5.376-5.376V327.68h38.7584v129.536c-0.0512 2.9696-2.4576 5.376-5.4272 5.376zM864.4096 462.592h-27.9552c-2.9696 0-5.376-2.4064-5.376-5.376V327.68h38.7584v129.536c0 2.9696-2.4576 5.376-5.4272 5.376zM611.4304 462.592h-27.9552c-2.9696 0-5.376-2.4064-5.376-5.376V327.68h38.7584v129.536c-0.0512 2.9696-2.4576 5.376-5.4272 5.376zM542.4128 462.592h-27.9552c-2.9696 0-5.376-2.4064-5.376-5.376V327.68H547.84v129.536c-0.0512 2.9696-2.4576 5.376-5.4272 5.376z" fill="#272933" /><path d="M660.3264 675.7888H170.4448c-61.952 0-112.384-50.432-112.384-112.384 0-45.5168 27.2384-84.736 66.2528-102.3488v-37.4784c-58.6752 19.4048-101.12 74.752-101.12 139.8272 0 81.2032 66.0992 147.3024 147.3024 147.3024h489.8816v-34.9184z" fill="#CFE0CD" /><path d="M660.3264 675.7888h59.8016v34.9184h-59.8016z" fill="#272933" /></svg>