<?xml version="1.0" encoding="utf-8"?>
<!-- Uploaded to: SVG Repo, www.svgrepo.com, Generator: SVG Repo Mixer Tools -->
<svg width="800px" height="800px" viewBox="0 0 1024 1024" class="icon"  version="1.1" xmlns="http://www.w3.org/2000/svg"><path d="M912.256 713.6L674.56 456.832l235.328-258.944z" fill="#F8B62D" /><path d="M904.832 202.368h20.864v511.232h-20.864z" fill="#F39800" /><path d="M789.952 403.136l-0.576 89.088-493.696-3.328 0.64-89.088z" fill="#F8B62D" /><path d="M523.584 843.2H323.712c-109.76 0-198.976-91.2-198.976-203.328v-36.736c0-112.064 89.216-203.328 198.976-203.328h473.536v89.984H323.712c-60.096 0-108.992 50.816-108.992 113.344v36.736c0 62.528 48.896 113.344 108.992 113.344h199.872v89.984z" fill="#F8B62D" /><path d="M516.672 844.032v-89.92c60.032 0 108.928-50.88 108.928-113.344v-36.736h89.984v36.672c0.064 112.192-89.216 203.328-198.912 203.328z" fill="#F8B62D" /><path d="M308.096 336.512h41.728v308.096h-41.728zM402.432 336.512h41.728v308.096h-41.728zM498.88 326.464h41.728v308.16h-41.728z" fill="#F39800" /><path d="M305.984 659.712a125.632 61.056 0 1 0 251.264 0 125.632 61.056 0 1 0-251.264 0Z" fill="#F8B62D" /><path d="M294.016 299.456h69.824v41.792H294.016zM388.416 299.456H458.24v41.792H388.416zM484.864 299.456h69.824v41.792H484.864z" fill="#F8B62D" /><path d="M105.984 500.8a37.696 37.696 0 0 1-36.992 38.336 37.696 37.696 0 0 1-36.928-38.336V404.928c0-21.184 16.512-38.336 36.928-38.336a37.76 37.76 0 0 1 36.992 38.336v95.872z" fill="#F39800" /><path d="M238.08 399.872H123.392v123.776h5.888c14.72-57.664 56.32-102.784 108.864-118.144v-5.632z" fill="#F8B62D" /></svg>