<?xml version="1.0" encoding="utf-8"?>
<!-- Uploaded to: SVG Repo, www.svgrepo.com, Generator: SVG Repo Mixer Tools -->
<svg width="800px" height="800px" viewBox="0 0 1024 1024" class="icon"  version="1.1" xmlns="http://www.w3.org/2000/svg"><path d="M981.504 836.992c0 23.616-18.752 42.88-41.792 42.88H100.8a42.432 42.432 0 0 1-41.792-42.88V458.304c0-23.744 18.752-42.88 41.792-42.88h838.912c23.04 0 41.792 19.136 41.792 42.88v378.688z" fill="#D94437" /><path d="M981.504 528.128V458.304a42.304 42.304 0 0 0-41.792-42.88H100.8a42.304 42.304 0 0 0-41.792 42.88v69.888h922.496z" fill="#CDD6D9" /><path d="M229.12 702.656m-124.416 0a124.416 124.416 0 1 0 248.832 0 124.416 124.416 0 1 0-248.832 0Z" fill="#435861" /><path d="M229.12 838.144a135.552 135.552 0 0 1-135.424-135.488c0-74.624 60.736-135.424 135.424-135.424a135.68 135.68 0 0 1 135.488 135.424 135.68 135.68 0 0 1-135.488 135.488z m0-248.896c-62.528 0-113.344 50.88-113.344 113.344s50.816 113.408 113.344 113.408c62.528 0 113.344-50.88 113.344-113.344S291.648 589.248 229.12 589.248z" fill="#D1CECF" /><path d="M229.12 702.656m-26.496 0a26.496 26.496 0 1 0 52.992 0 26.496 26.496 0 1 0-52.992 0Z" fill="#AAB5BB" /><path d="M803.968 702.656m-124.416 0a124.416 124.416 0 1 0 248.832 0 124.416 124.416 0 1 0-248.832 0Z" fill="#435861" /><path d="M804.032 838.144a135.68 135.68 0 0 1-135.488-135.488c0-74.624 60.8-135.424 135.488-135.424s135.424 60.8 135.424 135.424a135.68 135.68 0 0 1-135.424 135.488z m0-248.896c-62.528 0-113.344 50.88-113.344 113.344s50.88 113.344 113.344 113.344c62.464 0 113.344-50.88 113.344-113.344s-50.944-113.344-113.344-113.344z" fill="#D1CECF" /><path d="M803.968 702.656m-26.432 0a26.432 26.432 0 1 0 52.864 0 26.432 26.432 0 1 0-52.864 0Z" fill="#AAB5BB" /><path d="M432.064 644.864h176.256v61.12H432.064zM363.328 447.04h309.568v40.576H363.328z" fill="#435861" /><path d="M188.288 170.688h662.4v61.248H188.288z" fill="#D94437" /><path d="M147.776 170.688h40.512v309.504h-40.512zM850.688 170.688h40.512v309.504h-40.512z" fill="#CDD6D9" /><path d="M432.064 729.152h43.648v48.256h-43.648zM498.432 729.152h43.584v48.256h-43.584zM564.736 729.152h43.648v48.256h-43.648z" fill="#A52224" /></svg>