<?xml version="1.0" encoding="utf-8"?>
<!-- Uploaded to: SVG Repo, www.svgrepo.com, Generator: SVG Repo Mixer Tools -->
<svg width="800px" height="800px" viewBox="0 0 1024 1024" class="icon"  version="1.1" xmlns="http://www.w3.org/2000/svg"><path d="M448.064 582.912l195.712 262.912-217.984-307.2c4.736 15.488 12.032 30.528 22.272 44.288z" fill="#EAB528" /><path d="M717.504 665.344l69.888 93.76c16.256 22.016 20.544 46.4 9.6 54.592-10.944 8.256-33.216-3.008-49.472-24.96l-290.944-391.04-0.064 0.064-187.136-243.008-73.664 54.848 238.272 349.824a156.16 156.16 0 0 1-2.112-12.224l211.968 298.688 39.232 52.8a146.368 146.368 0 0 0 173.056 48.064 146.496 146.496 0 0 0 62.208-223.04l-97.216-130.56c-44.096-59.456-40.448 37.504-103.616 72.192z" fill="#EAB528" /><path d="M845.312 466.496l-126.336 0.128-1.92 199.936 128.576-0.896z" fill="#EAB528" /><path d="M695.36 467.136h176.64v40.96h-176.64z" fill="#EAB528" /><path d="M280.256 232.768l-155.392 9.408-10.88-57.792 151.68-28.672z" fill="#EAB528" /><path d="M155.328 239.68l-97.216 2.304-8.768-46.336 94.336-17.792z" fill="#435861" /><path d="M342.528 286.528l26.944-20.096 26.752 35.968-26.88 20.032zM400.768 364.8l26.88-20.032 26.816 35.904-26.88 20.096zM459.008 443.136l29.504-21.888 23.68 31.872-29.44 21.952zM517.376 521.536l29.504-21.888 23.616 31.808-29.568 21.888zM575.744 599.808l36.096-26.752 33.792 45.568-36.096 26.816zM651.776 702.08l35.904-26.752 33.92 45.632-35.904 26.752zM769.28 667.328l35.968-26.688 33.856 45.632-36.032 26.688zM818.752 733.696l35.968-26.624 33.728 45.568-35.968 26.624z" fill="#B99240" /></svg>