<?xml version="1.0" encoding="utf-8"?>
<!-- Uploaded to: SVG Repo, www.svgrepo.com, Generator: SVG Repo Mixer Tools -->
<svg width="800px" height="800px" viewBox="0 0 1024 1024" class="icon"  version="1.1" xmlns="http://www.w3.org/2000/svg"><path d="M835.264 472.576l-605.696-3.968-0.32 53.888a93.248 93.248 0 0 1 68.352-29.888h291.776c38.08 0 70.72 22.848 85.888 55.872l159.488 1.088 0.512-76.992z" fill="#EAB528" /><path d="M91.2 470.592h605.632v41.472H91.2z" fill="#EAB528" /><path d="M665.92 549.184c0-41.024-40.704-47.68-78.592-47.68H297.28c-26.752 0-70.4-5.376-87.552 12.544l-15.04 32.256" fill="#C59829" /><path d="M49.664 440.384h41.472V531.2H49.664z" fill="#EAB528" /><path d="M343.04 417.344h38.464v283.968H343.04zM405.056 417.344h38.464v283.968h-38.464zM467.136 417.344H505.6v283.968h-38.464z" fill="#A57A27" /><path d="M263.872 722.688l-34.88-46.656 427.52 0.448-45.056 48.448z" fill="#EAB528" /><path d="M589.376 729.344H297.6c-63.744 0-115.584-52.736-115.584-117.568V589.44c0-30.4 11.392-59.2 32.064-81.216l30.208 28.352a76.8 76.8 0 0 0-20.8 52.864v22.4c0 41.92 33.28 76.032 74.112 76.032h291.776c40.96 0 74.176-34.112 74.176-76.032v-22.4c-0.128-11.776-16.768-79.616-21.312-89.472l37.76-17.28c6.4 13.952 25.024 88.128 25.024 106.752v22.4c0 64.768-51.904 117.504-115.648 117.504zM954.624 628.224l-218.56-119.04 217.408-121.152zM321.472 408.064h203.712v20.224H321.472z" fill="#EAB528" /><path d="M935.36 366.208h19.2v283.904h-19.2z" fill="#E1B12F" /></svg>