<?xml version="1.0" encoding="utf-8"?>
<!-- Uploaded to: SVG Repo, www.svgrepo.com, Generator: SVG Repo Mixer Tools -->
<svg width="800px" height="800px" viewBox="0 -7 1038 1038" class="icon"  version="1.1" xmlns="http://www.w3.org/2000/svg"><path d="M874.88 381.76c0 89.088-169.536 153.792-378.752 153.792S117.376 470.848 117.376 381.76c0-89.024 169.536-161.216 378.752-161.216s378.752 72.192 378.752 161.216z" fill="#CDD6D9" /><path d="M493.824 194.752c-218.688 0-395.904 88-395.904 196.416 0 108.48 177.216 196.416 395.904 196.416 218.624 0 395.84-87.936 395.84-196.416-0.064-108.48-177.216-196.416-395.84-196.416z m2.304 330.56c-206.208 0-375.68-51.712-375.68-137.984s167.168-156.16 373.376-156.16c206.208 0 373.376 69.888 373.376 156.16s-164.864 137.984-371.072 137.984zM871.488 705.28v43.968c4.48 10.304 6.912 20.928 6.912 31.936 0 92.992-171.2 153.344-382.336 153.344-211.136 0-382.336-60.288-382.336-153.344 0-11.008 2.432-21.632 6.912-31.936v-43.968c-19.2 24.704-22.784 53.696-22.784 81.984 0 117.056 174.336 217.344 398.208 217.344s397.888-102.336 397.888-219.392c0.064-28.288-3.2-55.296-22.464-79.936z" fill="#506A76" /><path d="M876.352 442.688h-5.248c-25.92 77.632-184.64 137.408-376.576 137.408-192 0-350.656-59.84-376.512-137.408h-1.28v329.792c-1.6 5.952-2.496 12.032-2.496 18.112s0.896 12.16 2.496 18.048v0.448h0.128c21.888 79.488 182.592 141.248 377.664 141.248 195.072 0 355.84-61.76 377.664-141.248h4.096V442.688z" fill="#82B24D" /><path d="M1003.264 126.464c12.224-4.608 26.816 4.224 32.64 19.776 5.888 15.488 0.64 31.808-11.648 36.352L529.28 367.808c-12.16 4.544-26.752-4.288-32.576-19.776-5.824-15.488-0.64-31.808 11.584-36.352l494.976-185.216z" fill="#9E867D" /><path d="M544.064 319.36m-76.544 0a76.544 76.544 0 1 0 153.088 0 76.544 76.544 0 1 0-153.088 0Z" fill="#755448" /><path d="M305.28 588.096V518.656l-113.024-42.112v69.44l30.208 15.04v316.096l-30.208-14.912v69.44l113.024 42.176V904.32l-30.272-7.488V580.608zM692.864 585.856V516.416l113.024-42.112v69.504l-30.272 14.976v316.096l30.272-14.976v69.504l-113.024 42.176v-69.568l30.272-7.36V578.368zM550.272 598.528V525.312H437.312v73.216h30.208v332.928h-30.208v73.088h112.96v-73.088h-30.272V598.528z" fill="#34464E" /></svg>