<?xml version="1.0" encoding="utf-8"?>
<!-- Uploaded to: SVG Repo, www.svgrepo.com, Generator: SVG Repo Mixer Tools -->
<svg width="800px" height="800px" viewBox="0 0 1024 1024" class="icon"  version="1.1" xmlns="http://www.w3.org/2000/svg"><path d="M575.744 717.952c19.072-38.656 19.968-52.672 64.704-93.824a579.2 579.2 0 0 1 43.072-35.776c41.216-38.976 63.872-81.344 29.824-118.4l-119.04-129.408c-34.944-37.952-80.384-17.216-123.648 22.464l-13.312 9.152c-8.064 8.384-16.512 16.64-25.472 24.896-50.304 46.208-70.336 48.128-113.408 61.632l-2.048 1.408c-34.112 4.16-106.496 53.568-140.8 85.056-62.016 56.96-84.288 133.632-49.792 171.264 1.856 1.92 3.968 3.712 5.952 5.504l-0.448 0.384 178.624 194.432 1.024-0.896c37.824 27.008 108.736 9.664 165.888-42.816 41.984-38.592 98.816-116.8 98.88-155.072z" fill="#E88F22" /><path d="M859.648 166.528l56.768 61.824-416 382.272-56.768-61.76z" fill="#5B4037" /><path d="M515.904 538.112l-3.072 98.944-98.816-3.072 3.072-98.88z" fill="#3C2622" /><path d="M810.432 163.008l105.152 114.496-82.624 75.84-105.152-114.496z" fill="#5B4037" /><path d="M847.36 153.088l81.472 88.64-139.904 128.64L707.456 281.6z" fill="#B5612C" /><path d="M385.152 740.928l-81.472-88.64 25.152-46.976 105.152 114.496z" fill="#5B4037" /><path d="M844.864 200.64l14.4 15.616-27.072 24.768-14.336-15.616zM789.312 251.648l14.4 15.616-27.072 24.896-14.336-15.68zM866.56 224.256l14.464 15.616-27.008 24.96-14.4-15.616zM811.072 275.328l14.4 15.616-27.008 24.96-14.464-15.616z" fill="#E1C2AD" /></svg>