<?xml version="1.0" encoding="utf-8"?>
<!-- Uploaded to: SVG Repo, www.svgrepo.com, Generator: SVG Repo Mixer Tools -->
<svg width="800px" height="800px" viewBox="0 0 1024 1024" class="icon"  version="1.1" xmlns="http://www.w3.org/2000/svg"><path d="M32.9 102.5l683.8 204.4 204.4 683.7-107.4-55.3-119.9-206.7-216.8-182-182.1-216.8L88.3 209.9z" fill="#8599A4" /><path d="M921.1 999.6c-1.4 0-2.8-0.3-4.1-1l-107.4-55.3c-1.5-0.8-2.8-2-3.7-3.5L686.8 734.5 471.2 553.4c-0.4-0.3-0.8-0.7-1.1-1.1L289 336.8 83.8 217.6c-1.5-0.9-2.7-2.1-3.5-3.7L24.9 106.6c-1.7-3.2-1.2-7.1 1.1-9.9 2.3-2.8 6-3.9 9.5-2.9l683.7 204.4c2.9 0.9 5.2 3.1 6 6L929.7 988c1 3.5-0.1 7.2-2.9 9.5-1.6 1.4-3.7 2.1-5.7 2.1z m-100.9-71.1l86.2 44.4-196.9-658.8L50.6 117.2 95 203.4 299.4 322c0.9 0.5 1.7 1.2 2.4 2l181.6 216.2 216.2 181.6c0.8 0.7 1.5 1.5 2 2.4l118.6 204.3z" fill="#3E4152" /><path d="M29 575.3l322.8 96.5 96.5 322.8-50.7-26.1-56.7-97.6L238.6 785l-86-102.4L55.1 626z" fill="#8599A4" /><path d="M448.2 1003.6c-1.4 0-2.8-0.3-4.1-1l-50.7-26.1c-1.5-0.8-2.8-2-3.7-3.5l-55.8-96.2-101.1-84.9c-0.4-0.3-0.8-0.7-1.1-1.1l-84.9-101.1-96.2-55.8c-1.5-0.9-2.7-2.1-3.5-3.7L21 579.4c-1.7-3.2-1.2-7.1 1.1-9.9 2.3-2.8 6-3.9 9.5-2.9l322.8 96.5c2.9 0.9 5.2 3.1 6 6L456.9 992c1 3.5-0.1 7.2-2.9 9.5-1.7 1.4-3.7 2.1-5.8 2.1zM404 961.7l29.5 15.2-89-297.9-297.8-89 15.2 29.5 95.3 55.3c0.9 0.5 1.7 1.2 2.4 2L245 778.6 346.7 864c0.8 0.7 1.5 1.5 2 2.4l55.3 95.3z" fill="#3E4152" /><path d="M942.3 202.6L254.5 890.5c-33.4 33.4-140 85.4-173.4 52-33.4-33.4 18.6-140 52-173.4L820.9 81.2c33.4-33.3 122.7-68 156.1-34.6 33.4 33.3-1.3 122.6-34.7 156z" fill="#C1E7D8" /><path d="M113.5 962.3c-19.9 0-31.8-6.4-38.8-13.5-12.3-12.3-22.4-38.9-1.1-96.2 12.8-34.5 34.7-71.5 53.1-89.9L814.6 74.9c18.2-18.2 50.4-35.7 82-44.7 38.6-10.9 69.5-7.4 86.8 10 17.4 17.4 20.9 48.2 10 86.8-8.9 31.6-26.5 63.7-44.7 82L260.8 896.8c-18.5 18.5-55.4 40.3-89.9 53.1-24.2 9-42.9 12.4-57.4 12.4zM936.9 42c-10.4 0-22.4 1.8-35.5 5.5-28.4 8-58.2 24.1-74.1 40.1L139.4 775.5c-16.6 16.6-37.2 51.7-49 83.5-13.8 37.2-14.9 65.3-3 77.2 11.9 11.9 40 10.8 77.2-3 31.8-11.8 66.9-32.4 83.5-49L936 196.3c16-16 32.1-45.7 40.1-74.1 8.9-31.6 7-56.9-5.4-69.2-7.3-7.3-19-11-33.8-11z" fill="#3E4152" /><path d="M838.3 185.3m-36.8 0a36.8 36.8 0 1 0 73.6 0 36.8 36.8 0 1 0-73.6 0Z" fill="#9B5C77" /><path d="M838.3 231.1c-12.2 0-23.7-4.8-32.4-13.4-8.6-8.6-13.4-20.1-13.4-32.4 0-12.2 4.8-23.7 13.4-32.4 8.6-8.6 20.1-13.4 32.4-13.4 12.2 0 23.7 4.8 32.4 13.4 8.6 8.6 13.4 20.1 13.4 32.4 0 12.2-4.8 23.7-13.4 32.4-8.7 8.6-20.2 13.4-32.4 13.4z m0-73.6c-7.4 0-14.4 2.9-19.6 8.1-5.2 5.2-8.1 12.2-8.1 19.6 0 7.4 2.9 14.4 8.1 19.6 5.2 5.2 12.2 8.1 19.6 8.1 7.4 0 14.4-2.9 19.6-8.1 5.2-5.2 8.1-12.2 8.1-19.6 0-7.4-2.9-14.4-8.1-19.6-5.2-5.2-12.2-8.1-19.6-8.1z" fill="#3E4152" /></svg>