<?xml version="1.0" encoding="utf-8"?>
<!-- Uploaded to: SVG Repo, www.svgrepo.com, Generator: SVG Repo Mixer Tools -->
<svg width="800px" height="800px" viewBox="0 0 1024 1024" class="icon"  version="1.1" xmlns="http://www.w3.org/2000/svg"><path d="M198 720.9m-179.3 0a179.3 179.3 0 1 0 358.6 0 179.3 179.3 0 1 0-358.6 0Z" fill="#C1E7D8" /><path d="M198 909.2C94.2 909.2 9.7 824.7 9.7 720.9S94.2 532.6 198 532.6s188.3 84.5 188.3 188.3S301.8 909.2 198 909.2z m0-358.6c-93.9 0-170.3 76.4-170.3 170.3S104.1 891.2 198 891.2s170.3-76.4 170.3-170.3S291.9 550.6 198 550.6z" fill="#3E4152" /><path d="M824.7 720.9m-179.3 0a179.3 179.3 0 1 0 358.6 0 179.3 179.3 0 1 0-358.6 0Z" fill="#C1E7D8" /><path d="M824.7 909.2c-103.8 0-188.3-84.5-188.3-188.3s84.5-188.3 188.3-188.3S1013 617.1 1013 720.9s-84.5 188.3-188.3 188.3z m0-358.6c-93.9 0-170.3 76.4-170.3 170.3s76.4 170.3 170.3 170.3S995 814.8 995 720.9s-76.4-170.3-170.3-170.3z" fill="#3E4152" /><path d="M824.7 729.9c-3.4 0-6.7-1.9-8.2-5.3L685.3 438.5H327.2L211.6 711.9H476l91-207.5c2-4.6 7.3-6.6 11.9-4.6 4.6 2 6.6 7.3 4.6 11.9l-93.4 212.9c-1.4 3.3-4.7 5.4-8.2 5.4H198c-3 0-5.8-1.5-7.5-4s-2-5.7-0.8-8.5L313 426c1.4-3.3 4.7-5.5 8.3-5.5h369.8c3.5 0 6.7 2.1 8.2 5.2l133.6 291.4c2.1 4.5 0.1 9.9-4.4 11.9-1.3 0.6-2.6 0.9-3.8 0.9zM377.3 363.8H272.7c-5 0-9-4-9-9s4-9 9-9h104.6c5 0 9 4 9 9s-4 9-9 9z" fill="#3E4152" /><path d="M325 438.5c-5 0-9-4-9-9V366c0-5 4-9 9-9s9 4 9 9v63.5c0 5-4 9-9 9zM691.1 438.5c-2.1 0-4.2-0.7-6-2.3-3.7-3.3-4.1-9-0.8-12.7l49.7-56.4-63.5-50.1c-3.9-3.1-4.6-8.7-1.5-12.6 3.1-3.9 8.7-4.6 12.6-1.5l71 56c1.9 1.5 3.2 3.8 3.4 6.3s-0.6 4.9-2.2 6.8l-56 63.5c-1.7 2-4.2 3-6.7 3z" fill="#3E4152" /><path d="M870 98.2c-10.5 0-20.1 4.2-27.2 10.9-7.1-6.7-16.7-10.9-27.2-10.9-21.8 0-39.6 17.7-39.6 39.6s57 68.2 66.8 68.2c9.8 0 66.8-46.4 66.8-68.2S891.9 98.2 870 98.2z" fill="#9B5C77" /><path d="M842.8 215c-12.2 0-40-25.4-43.2-28.3-26.9-25-32.6-40.4-32.6-48.9 0-26.8 21.8-48.6 48.6-48.6 9.8 0 19.2 2.9 27.2 8.4 8-5.4 17.4-8.4 27.2-8.4 26.8 0 48.6 21.8 48.6 48.6 0 8.5-5.7 24-32.6 48.9-3.2 2.9-31 28.3-43.2 28.3z m-27.2-107.8c-16.9 0-30.6 13.7-30.6 30.6 0 3.8 5.3 15.4 25.1 34.1 14.6 13.8 28.1 22.9 32.6 24.9 4.6-2 18.1-11.1 32.6-24.9 19.8-18.8 25.1-30.3 25.1-34.1 0-16.9-13.7-30.6-30.6-30.6-7.8 0-15.3 3-21 8.4-3.5 3.3-8.9 3.3-12.4 0-5.5-5.4-13-8.4-20.8-8.4z" fill="#3E4152" /><path d="M805.6 139.5c-10.5 0-20.1 4.2-27.2 10.9-7.1-6.7-16.7-10.9-27.2-10.9-21.8 0-39.6 17.7-39.6 39.6s57 68.2 66.8 68.2 66.8-46.4 66.8-68.2-17.8-39.6-39.6-39.6z" fill="#9B5C77" /><path d="M778.4 256.3c-12.2 0-40-25.4-43.2-28.3-26.9-25-32.6-40.4-32.6-48.9 0-26.8 21.8-48.6 48.6-48.6 9.8 0 19.2 2.9 27.2 8.4 8-5.4 17.4-8.4 27.2-8.4 26.8 0 48.6 21.8 48.6 48.6 0 8.5-5.7 24-32.6 48.9-3.2 2.9-31 28.3-43.2 28.3z m-27.2-107.8c-16.9 0-30.6 13.7-30.6 30.6 0 3.8 5.3 15.4 25.1 34.1 14.6 13.8 28 22.9 32.6 24.9 4.6-2 18.1-11.1 32.6-24.9 19.8-18.8 25.1-30.3 25.1-34.1 0-16.9-13.7-30.6-30.6-30.6-7.8 0-15.3 3-21 8.4-3.5 3.3-8.9 3.3-12.4 0-5.5-5.4-13-8.4-20.8-8.4z" fill="#3E4152" /></svg>