<?xml version="1.0" encoding="utf-8"?>
<!-- Uploaded to: SVG Repo, www.svgrepo.com, Generator: SVG Repo Mixer Tools -->
<svg width="800px" height="800px" viewBox="0 0 1024 1024" class="icon"  version="1.1" xmlns="http://www.w3.org/2000/svg"><path d="M857.5 643.5H123.9V407.3h880.3z" fill="#8599A4" /><path d="M857.5 652.5H123.9c-5 0-9-4-9-9V407.3c0-5 4-9 9-9h880.3c3.3 0 6.3 1.8 7.9 4.6 1.6 2.9 1.5 6.3-0.2 9.1L865.1 648.2c-1.6 2.7-4.5 4.3-7.6 4.3z m-724.6-18h719.5L988 416.3H132.9v218.2z" fill="#3E4152" /><path d="M173.2 407.3l61.2-199h70l39.3-78.8h126.9l26.2 52.5h105l52.5 86.4h105l52.5 138.9z" fill="#C1E7D8" /><path d="M824.8 416.3H161l66.8-217h71.1l39.4-78.7h138l26.2 52.5H607l52.5 86.4h106.1l59.2 156.8z m-639.5-18h613.4L753 277.4H649.2L596.7 191H491.3L465 138.5H349.3l-39.4 78.7H241l-55.7 181.1z" fill="#3E4152" /><path d="M422.5 182h74.3" fill="#8599A4" /><path d="M496.8 191h-74.4c-5 0-9-4-9-9s4-9 9-9h74.4c5 0 9 4 9 9s-4 9-9 9z" fill="#3E4152" /><path d="M265 287h74.4v61.2H265z" fill="#9B5C77" /><path d="M339.4 357.2H265c-5 0-9-4-9-9V287c0-5 4-9 9-9h74.4c5 0 9 4 9 9v61.2c0 5-4.1 9-9 9z m-65.4-18h56.4V296H274v43.2z" fill="#3E4152" /><path d="M396 287h74.4v61.2H396z" fill="#9B5C77" /><path d="M470.3 357.2H396c-5 0-9-4-9-9V287c0-5 4-9 9-9h74.4c5 0 9 4 9 9v61.2c-0.1 5-4.1 9-9.1 9z m-65.3-18h56.4V296H405v43.2z" fill="#3E4152" /><path d="M526.9 287h74.4v61.2h-74.4z" fill="#9B5C77" /><path d="M601.3 357.2h-74.4c-5 0-9-4-9-9V287c0-5 4-9 9-9h74.4c5 0 9 4 9 9v61.2c0 5-4.1 9-9 9z m-65.4-18h56.4V296h-56.4v43.2zM153.2 782.6c-5 0-9-4-9-9 0-33.6-27.3-60.9-60.9-60.9-33.6 0-60.9 27.3-60.9 60.9 0 5-4 9-9 9s-9-4-9-9c0-43.5 35.4-78.9 78.9-78.9s78.9 35.4 78.9 78.9c0 4.9-4 9-9 9z" fill="#3E4152" /><path d="M293.1 782.6c-5 0-9-4-9-9 0-33.6-27.3-60.9-60.9-60.9-33.6 0-60.9 27.3-60.9 60.9 0 5-4 9-9 9s-9-4-9-9c0-43.5 35.4-78.9 78.9-78.9s78.9 35.4 78.9 78.9c0 4.9-4 9-9 9z" fill="#3E4152" /><path d="M432.9 782.6c-5 0-9-4-9-9 0-33.6-27.3-60.9-60.9-60.9-33.6 0-60.9 27.3-60.9 60.9 0 5-4 9-9 9s-9-4-9-9c0-43.5 35.4-78.9 78.9-78.9s78.9 35.4 78.9 78.9c0 4.9-4 9-9 9z" fill="#3E4152" /><path d="M571.5 782.6c-5 0-9-4-9-9 0-33.6-27.3-60.9-60.9-60.9-33.6 0-60.9 27.3-60.9 60.9 0 5-4 9-9 9s-9-4-9-9c0-43.5 35.4-78.9 78.9-78.9s78.9 35.4 78.9 78.9c0 4.9-4 9-9 9z" fill="#3E4152" /><path d="M710.1 782.6c-5 0-9-4-9-9 0-33.6-27.3-60.9-60.9-60.9s-60.9 27.3-60.9 60.9c0 5-4 9-9 9s-9-4-9-9c0-43.5 35.4-78.9 78.9-78.9s78.9 35.4 78.9 78.9c0 4.9-4.1 9-9 9zM403.8 903.9c-5 0-9-4-9-9 0-33.6-27.3-60.9-60.9-60.9-33.6 0-60.9 27.3-60.9 60.9 0 5-4 9-9 9s-9-4-9-9c0-43.5 35.4-78.9 78.9-78.9s78.9 35.4 78.9 78.9c0 5-4.1 9-9 9z" fill="#3E4152" /><path d="M543.6 903.9c-5 0-9-4-9-9 0-33.6-27.3-60.9-60.9-60.9s-60.9 27.3-60.9 60.9c0 5-4 9-9 9s-9-4-9-9c0-43.5 35.4-78.9 78.9-78.9s78.9 35.4 78.9 78.9c0 5-4 9-9 9z" fill="#3E4152" /><path d="M683.5 903.9c-5 0-9-4-9-9 0-33.6-27.3-60.9-60.9-60.9-33.6 0-60.9 27.3-60.9 60.9 0 5-4 9-9 9s-9-4-9-9c0-43.5 35.4-78.9 78.9-78.9 43.5 0 78.9 35.4 78.9 78.9 0 5-4 9-9 9z" fill="#3E4152" /><path d="M822 903.9c-5 0-9-4-9-9 0-33.6-27.3-60.9-60.9-60.9s-60.9 27.3-60.9 60.9c0 5-4 9-9 9s-9-4-9-9c0-43.5 35.4-78.9 78.9-78.9s78.9 35.4 78.9 78.9c0 5-4 9-9 9z" fill="#3E4152" /><path d="M961 903.9c-5 0-9-4-9-9 0-33.6-27.3-60.9-60.9-60.9s-60.9 27.3-60.9 60.9c0 5-4 9-9 9s-9-4-9-9c0-43.5 35.4-78.9 78.9-78.9s78.9 35.4 78.9 78.9c0 5-4 9-9 9z" fill="#3E4152" /></svg>