<?xml version="1.0" encoding="utf-8"?>
<!-- Uploaded to: SVG Repo, www.svgrepo.com, Generator: SVG Repo Mixer Tools -->
<svg width="800px" height="800px" viewBox="0 0 1024 1024" class="icon"  version="1.1" xmlns="http://www.w3.org/2000/svg"><path d="M423.5 1006h-79.8c-14.2 0-25.7-11.5-25.7-25.7V929h131.2v51.3c0 14.2-11.5 25.7-25.7 25.7z" fill="#C1E7D8" /><path d="M424 1014.8h-80.7c-18.8 0-34-15.3-34-34v-60.6H458v60.6c0 18.8-15.2 34-34 34z m-97.1-77v42.9c0 9 7.3 16.4 16.4 16.4H424c9 0 16.4-7.3 16.4-16.4v-42.9H326.9z" fill="#3E4152" /><path d="M678.6 1006h-79.8c-14.2 0-25.7-11.5-25.7-25.7V929h131.2v51.3c-0.1 14.2-11.6 25.7-25.7 25.7z" fill="#C1E7D8" /><path d="M679 1014.8h-80.7c-18.8 0-34-15.3-34-34v-60.6h148.8v60.6c0 18.8-15.3 34-34.1 34z m-97.1-77v42.9c0 9 7.3 16.4 16.4 16.4H679c9 0 16.4-7.3 16.4-16.4v-42.9H581.9z" fill="#3E4152" /><path d="M755.4 941.8H266.8c-34.5 0-62.4-28-62.4-62.4v-651c0-34.5 28-62.4 62.4-62.4h488.6c34.5 0 62.4 28 62.4 62.4v651c0.1 34.5-27.9 62.4-62.4 62.4z" fill="#C1E7D8" /><path d="M756.5 950.7H265.7c-38.7 0-70.2-31.5-70.2-70.2V227.2c0-38.7 31.5-70.2 70.2-70.2h490.8c38.7 0 70.2 31.5 70.2 70.2v653.2c0 38.8-31.5 70.3-70.2 70.3z m-490.8-776c-28.9 0-52.5 23.6-52.5 52.5v653.2c0 28.9 23.6 52.5 52.5 52.5h490.8c28.9 0 52.5-23.6 52.5-52.5V227.2c0-28.9-23.5-52.5-52.5-52.5H265.7z" fill="#3E4152" /><path d="M204.4 285h613.5v17.7H204.4z" fill="#3E4152" /><path d="M762.1 941.8H260.2c-30.8 0-55.8-25-55.8-55.8V688.6h613.5V886c0 30.8-25 55.8-55.8 55.8z" fill="#9B5C77" /><path d="M763.1 950.7H259.2c-35.1 0-63.7-28.6-63.7-63.7V688.6c0-4.9 4-8.8 8.8-8.8h613.5c4.9 0 8.8 4 8.8 8.8V887c0.1 35.1-28.4 63.7-63.5 63.7zM213.2 697.4V887c0 25.4 20.6 46 46 46h503.9c25.4 0 46-20.6 46-46V697.4H213.2z" fill="#3E4152" /><path d="M204.4 682.8h613.5v17.7H204.4zM384.5 790.3H275.2c-4.9 0-8.8-4-8.8-8.8 0-4.9 4-8.8 8.8-8.8h109.3c4.9 0 8.8 4 8.8 8.8 0.1 4.8-3.9 8.8-8.8 8.8zM747 790.3H637.7c-4.9 0-8.8-4-8.8-8.8 0-4.9 4-8.8 8.8-8.8H747c4.9 0 8.8 4 8.8 8.8 0.1 4.8-3.9 8.8-8.8 8.8z" fill="#3E4152" /><path d="M511.1 700.4c-4.9 0-8.8-4-8.8-8.8V293.8c0-4.9 4-8.8 8.8-8.8 4.9 0 8.8 4 8.8 8.8v397.8c0.1 4.9-3.9 8.8-8.8 8.8zM122.2 501.6c-4.9 0-8.8-4-8.8-8.8V417l85.3-72.1c3.7-3.2 9.3-2.7 12.5 1 3.2 3.7 2.7 9.3-1 12.5l-79 66.9v67.5c-0.1 4.8-4.1 8.8-9 8.8zM900 501.6c-4.9 0-8.8-4-8.8-8.8v-67.5l-79-66.9c-3.7-3.2-4.2-8.7-1-12.5 3.2-3.7 8.7-4.2 12.5-1L909 417v75.7c-0.1 4.9-4.1 8.9-9 8.9z" fill="#3E4152" /><path d="M437.3 174.7c-1.6 0-3.3-0.5-4.8-1.4-4.1-2.6-5.3-8.1-2.7-12.2l95.6-148.8h59.4c4.9 0 8.8 4 8.8 8.8s-4 8.8-8.8 8.8h-49.7l-90.4 140.7c-1.6 2.7-4.5 4.1-7.4 4.1zM584.9 174.7c-1.6 0-3.3-0.5-4.8-1.4-4.1-2.6-5.3-8.1-2.7-12.2L673 12.3h59.4c4.9 0 8.8 4 8.8 8.8s-4 8.8-8.8 8.8h-49.7l-90.4 140.7c-1.6 2.7-4.5 4.1-7.4 4.1z" fill="#3E4152" /><path d="M817.9 351.6H204.4V221.7c0-30.8 25-55.8 55.8-55.8h501.9c30.8 0 55.8 25 55.8 55.8v129.9z" fill="#8599A4" /><path d="M826.7 360.4H195.5V220.7c0-35.1 28.6-63.7 63.7-63.7h503.9c35.1 0 63.7 28.6 63.7 63.7v139.7z m-613.5-17.7H809v-122c0-25.4-20.6-46-46-46H259.2c-25.4 0-46 20.6-46 46v122z" fill="#3E4152" /></svg>