<?xml version="1.0" encoding="utf-8"?>
<!-- Uploaded to: SVG Repo, www.svgrepo.com, Generator: SVG Repo Mixer Tools -->
<svg width="800px" height="800px" viewBox="0 0 1024 1024" class="icon"  version="1.1" xmlns="http://www.w3.org/2000/svg"><path d="M21.9 979.2c-1 0-2-0.2-3-0.5-4.7-1.7-7.1-6.8-5.5-11.5l212-600.8c1.7-4.7 6.8-7.1 11.5-5.5 4.7 1.7 7.1 6.8 5.5 11.5l-212 600.8c-1.3 3.7-4.8 6-8.5 6zM612.9 979.2c-3.7 0-7.2-2.3-8.5-6l-212-600.8c-1.7-4.7 0.8-9.8 5.5-11.5 4.7-1.7 9.8 0.8 11.5 5.5l212 600.8c1.7 4.7-0.8 9.8-5.5 11.5-1 0.3-2 0.5-3 0.5z" fill="#3E4152" /><path d="M558 847.3H76.9c-5 0-9-4-9-9s4-9 9-9H558c5 0 9 4 9 9s-4.1 9-9 9zM494.6 647H140.2c-5 0-9-4-9-9s4-9 9-9h354.3c5 0 9 4 9 9s-3.9 9-8.9 9zM435.2 500.5H199.6c-5 0-9-4-9-9s4-9 9-9h235.7c5 0 9 4 9 9s-4.1 9-9.1 9z" fill="#3E4152" /><path d="M973.2 970.2H676.4V838.3L510.3 369.4h120.9l342 468.9z" fill="#8599A4" /><path d="M973.2 979.2H676.4c-5 0-9-4-9-9V839.9L501.8 372.4c-1-2.8-0.6-5.8 1.1-8.2s4.4-3.8 7.4-3.8h120.9c2.9 0 5.6 1.4 7.3 3.7l342 468.9c1.1 1.5 1.7 3.4 1.7 5.3v131.9c0 5-4 9-9 9z m-287.8-18h278.8v-120L626.7 378.4H523.1L685 835.3c0.3 1 0.5 2 0.5 3v122.9z" fill="#3E4152" /><path d="M865.7 794.8c-5 0-9-4-9-9V304.7c0-5 4-9 9-9s9 4 9 9v481.1c0 5-4 9-9 9z" fill="#3E4152" /><path d="M872.5 186.8m-132.5 0a132.5 132.5 0 1 0 265 0 132.5 132.5 0 1 0-265 0Z" fill="#C1E7D8" /><path d="M872.5 328.3c-78 0-141.5-63.5-141.5-141.5S794.5 45.3 872.5 45.3 1014 108.8 1014 186.8s-63.5 141.5-141.5 141.5z m0-265c-68.1 0-123.5 55.4-123.5 123.5s55.4 123.5 123.5 123.5S996 254.9 996 186.8 940.6 63.3 872.5 63.3z" fill="#3E4152" /><path d="M906 195.8h-40.3c-5 0-9-4-9-9v-61.7c0-5 4-9 9-9s9 4 9 9v52.7H906c5 0 9 4 9 9s-4 9-9 9z" fill="#3E4152" /><path d="M676.4 838.3h296.8v131.9H676.4z" fill="#9B5C77" /><path d="M973.2 979.2H676.4c-5 0-9-4-9-9V838.3c0-5 4-9 9-9h296.8c5 0 9 4 9 9v131.9c0 5-4 9-9 9z m-287.8-18h278.8V847.3H685.4v113.9z" fill="#3E4152" /></svg>