<?xml version="1.0" encoding="utf-8"?>
<!-- Uploaded to: SVG Repo, www.svgrepo.com, Generator: SVG Repo Mixer Tools -->
<svg width="800px" height="800px" viewBox="0 0 1024 1024" class="icon"  version="1.1" xmlns="http://www.w3.org/2000/svg"><path d="M248.7 882.1c-5 0-9-4-9-9 0-37.9-30.8-68.7-68.7-68.7s-68.7 30.8-68.7 68.7c0 5-4 9-9 9s-9-4-9-9c0-47.8 38.9-86.7 86.7-86.7s86.7 38.9 86.7 86.7c0 5-4 9-9 9z" fill="#3E4152" /><path d="M404.2 882.1c-5 0-9-4-9-9 0-37.9-30.8-68.7-68.7-68.7-37.9 0-68.7 30.8-68.7 68.7 0 5-4 9-9 9s-9-4-9-9c0-47.8 38.9-86.7 86.7-86.7s86.7 38.9 86.7 86.7c0 5-4.1 9-9 9z" fill="#3E4152" /><path d="M559.6 882.1c-5 0-9-4-9-9 0-37.9-30.8-68.7-68.7-68.7s-68.7 30.8-68.7 68.7c0 5-4 9-9 9s-9-4-9-9c0-47.8 38.9-86.7 86.7-86.7s86.7 38.9 86.7 86.7c0 5-4 9-9 9z" fill="#3E4152" /><path d="M713.6 882.1c-5 0-9-4-9-9 0-37.9-30.8-68.7-68.7-68.7s-68.7 30.8-68.7 68.7c0 5-4 9-9 9s-9-4-9-9c0-47.8 38.9-86.7 86.7-86.7s86.7 38.9 86.7 86.7c0 5-4 9-9 9z" fill="#3E4152" /><path d="M856.8 882.1c-5 0-9-4-9-9 0-37.9-30.8-68.7-68.7-68.7s-68.7 30.8-68.7 68.7c0 5-4 9-9 9s-9-4-9-9c0-47.8 38.9-86.7 86.7-86.7s86.7 38.9 86.7 86.7c0 5-4 9-9 9zM388 1017c-5 0-9-4-9-9 0-37.9-30.8-68.7-68.7-68.7s-68.7 30.8-68.7 68.7c0 5-4 9-9 9s-9-4-9-9c0-47.8 38.9-86.7 86.7-86.7S397 960.2 397 1008c0 5-4.1 9-9 9z" fill="#3E4152" /><path d="M543.4 1017c-5 0-9-4-9-9 0-37.9-30.8-68.7-68.7-68.7S397 970.1 397 1008c0 5-4 9-9 9s-9-4-9-9c0-47.8 38.9-86.7 86.7-86.7 47.8 0 86.7 38.9 86.7 86.7 0 5-4 9-9 9z" fill="#3E4152" /><path d="M698.8 1017c-5 0-9-4-9-9 0-37.9-30.8-68.7-68.7-68.7s-68.7 30.8-68.7 68.7c0 5-4 9-9 9s-9-4-9-9c0-47.8 38.9-86.7 86.7-86.7s86.7 38.9 86.7 86.7c0 5-4 9-9 9z" fill="#3E4152" /><path d="M852.8 1017c-5 0-9-4-9-9 0-37.9-30.8-68.7-68.7-68.7-37.9 0-68.7 30.8-68.7 68.7 0 5-4 9-9 9s-9-4-9-9c0-47.8 38.9-86.7 86.7-86.7s86.7 38.9 86.7 86.7c0 5-4 9-9 9z" fill="#3E4152" /><path d="M996 1017c-5 0-9-4-9-9 0-37.9-30.8-68.7-68.7-68.7-37.9 0-68.7 30.8-68.7 68.7 0 5-4 9-9 9s-9-4-9-9c0-47.8 38.9-86.7 86.7-86.7s86.7 38.9 86.7 86.7c0 5-4 9-9 9z" fill="#3E4152" /><path d="M619.4 205.1V104.5H355.7v100.6H287v178.6h401.1V205.1z" fill="#9B5C77" /><path d="M688.1 392.7H287c-5 0-9-4-9-9V205.1c0-5 4-9 9-9h59.7v-91.6c0-5 4-9 9-9h263.7c5 0 9 4 9 9v91.6h59.7c5 0 9 4 9 9v178.6c0 5-4 9-9 9z m-392.1-18h383V214.1h-59.7c-5 0-9-4-9-9v-91.6H364.7v91.6c0 5-4 9-9 9H296v160.6z" fill="#3E4152" /><path d="M741.1 724H223.7L123.5 440.3l358.9-154.5 358.8 154.5z" fill="#C1E7D8" /><path d="M747.4 733H217.3l-105-297.7L482.4 276l370.1 159.3L747.4 733z m-517.3-18h504.6l95.2-269.8-347.5-149.6-347.6 149.6L230.1 715z" fill="#3E4152" /><path d="M414.6 17h145.8v87.5H414.6z" fill="#C1E7D8" /><path d="M569.5 113.5H405.6V8h163.8v105.5z m-145.9-18h127.8V26H423.6v69.5z" fill="#3E4152" /><path d="M323.9 468m-36.9 0a36.9 36.9 0 1 0 73.8 0 36.9 36.9 0 1 0-73.8 0Z" fill="#8599A4" /><path d="M323.9 513.9c-25.3 0-45.9-20.6-45.9-45.9s20.6-45.9 45.9-45.9 45.9 20.6 45.9 45.9-20.6 45.9-45.9 45.9z m0-73.8c-15.4 0-27.9 12.5-27.9 27.9s12.5 27.9 27.9 27.9 27.9-12.5 27.9-27.9-12.5-27.9-27.9-27.9z" fill="#3E4152" /><path d="M651.2 468m-36.9 0a36.9 36.9 0 1 0 73.8 0 36.9 36.9 0 1 0-73.8 0Z" fill="#8599A4" /><path d="M651.2 513.9c-25.3 0-45.9-20.6-45.9-45.9s20.6-45.9 45.9-45.9 45.9 20.6 45.9 45.9-20.6 45.9-45.9 45.9z m0-73.8c-15.4 0-27.9 12.5-27.9 27.9s12.5 27.9 27.9 27.9 27.9-12.5 27.9-27.9-12.5-27.9-27.9-27.9z" fill="#3E4152" /><path d="M482.4 285.8v296.7" fill="#8599A4" /><path d="M482.4 591.5c-5 0-9-4-9-9V285.8c0-5 4-9 9-9s9 4 9 9v296.7c0 5-4.1 9-9 9z" fill="#3E4152" /></svg>