<?xml version="1.0" encoding="utf-8"?>
<!-- Uploaded to: SVG Repo, www.svgrepo.com, Generator: SVG Repo Mixer Tools -->
<svg width="800px" height="800px" viewBox="0 0 1024 1024" class="icon"  version="1.1" xmlns="http://www.w3.org/2000/svg"><path d="M99 236.7h830.2v647.1H99z" fill="#C1E7D8" /><path d="M929.2 892.8H99c-5 0-9-4-9-9V236.7c0-5 4-9 9-9h830.2c5 0 9 4 9 9v647.1c0 5-4.1 9-9 9z m-821.2-18h812.2V245.7H108v629.1z" fill="#3E4152" /><path d="M1009 226.8H19.2L65.4 98.7h897.4z" fill="#9B5C77" /><path d="M1009 235.8H19.2c-2.9 0-5.7-1.4-7.4-3.8s-2.1-5.5-1.1-8.2L56.9 95.6c1.3-3.6 4.7-5.9 8.5-5.9h897.4c3.8 0 7.2 2.4 8.5 5.9l46.2 128.1c1 2.8 0.6 5.8-1.1 8.2s-4.5 3.9-7.4 3.9z m-977-18h964.2l-39.7-110.1H71.7L32 217.8z" fill="#3E4152" /><path d="M190.5 364h190.6v201.8H190.5z" fill="#8599A4" /><path d="M381 574.8H190.5c-5 0-9-4-9-9V364c0-5 4-9 9-9H381c5 0 9 4 9 9v201.8c0 5-4 9-9 9z m-181.5-18H372V373H199.5v183.8zM815.9 763.3H190.5c-5 0-9-4-9-9s4-9 9-9h625.4c5 0 9 4 9 9s-4.1 9-9 9z" fill="#3E4152" /><path d="M593.9 478.4a60.1 68.8 0 1 0 120.2 0 60.1 68.8 0 1 0-120.2 0Z" fill="#9B5C77" /><path d="M654 556.2c-38.1 0-69.1-34.9-69.1-77.8s31-77.8 69.1-77.8 69.1 34.9 69.1 77.8c0.1 42.9-30.9 77.8-69.1 77.8z m0-137.7c-28.2 0-51.1 26.8-51.1 59.8s22.9 59.8 51.1 59.8 51.1-26.8 51.1-59.8-22.9-59.8-51.1-59.8z" fill="#3E4152" /><path d="M702.8 921.2h-97.6l-39.1-197.4 39.1-163.5h97.6L742 723.5z" fill="#9B5C77" /><path d="M702.8 930.2h-97.6c-4.3 0-8-3-8.8-7.3l-39.1-197.5c-0.3-1.3-0.2-2.6 0.1-3.8l39.1-163.5c1-4 4.6-6.9 8.8-6.9h97.6c4.2 0 7.8 2.9 8.8 6.9l39.1 163.2c0.3 1.3 0.3 2.6 0.1 3.8L711.7 923c-0.9 4.2-4.6 7.2-8.9 7.2z m-90.2-18h82.8l37.3-188.6-37-154.4h-83.4l-37 154.7 37.3 188.3z" fill="#3E4152" /></svg>