<?xml version="1.0" encoding="utf-8"?>
<!-- Uploaded to: SVG Repo, www.svgrepo.com, Generator: SVG Repo Mixer Tools -->
<svg width="800px" height="800px" viewBox="0 0 1024 1024" class="icon"  version="1.1" xmlns="http://www.w3.org/2000/svg"><path d="M291.7 1019.5c-1 0-2-0.2-3-0.5-4.7-1.7-7.1-6.8-5.5-11.5l103.9-292.1c1.7-4.7 6.8-7.1 11.5-5.5 4.7 1.7 7.1 6.8 5.5 11.5l-103.9 292.1c-1.3 3.7-4.8 6-8.5 6zM734.3 1019.5c-3.7 0-7.2-2.3-8.5-6L621.9 721.4c-1.7-4.7 0.8-9.8 5.5-11.5 4.7-1.7 9.8 0.8 11.5 5.5l103.9 292.1c1.7 4.7-0.8 9.8-5.5 11.5-1 0.3-2 0.5-3 0.5z" fill="#3E4152" /><path d="M715 965.1H311c-5 0-9-4-9-9s4-9 9-9h404c5 0 9 4 9 9s-4.1 9-9 9z" fill="#3E4152" /><path d="M722.9 863.8H303.1c-26.5 0-48-21.5-48-48V276.5c0-36 29.2-65.2 65.2-65.2h385.5c36 0 65.2 29.2 65.2 65.2v539.3c-0.1 26.5-21.5 48-48.1 48z" fill="#C1E7D8" /><path d="M722.9 872.8H303.1c-31.4 0-57-25.6-57-57V276.5c0-40.9 33.3-74.2 74.2-74.2h385.5c40.9 0 74.2 33.3 74.2 74.2v539.3c-0.1 31.4-25.6 57-57.1 57zM320.2 220.4c-31 0-56.2 25.2-56.2 56.2v539.3c0 21.5 17.5 39 39 39h419.9c21.5 0 39-17.5 39-39V276.5c0-31-25.2-56.2-56.2-56.2H320.2z" fill="#3E4152" /><path d="M770.9 327.9H255.1c-5 0-9-4-9-9s4-9 9-9H771c5 0 9 4 9 9s-4.1 9-9.1 9zM770.9 662.4H255.1c-5 0-9-4-9-9s4-9 9-9H771c5 0 9 4 9 9s-4.1 9-9.1 9z" fill="#3E4152" /><path d="M716.7 863.8H309.3c-30 0-54.3-24.3-54.3-54.3V650.9h515.9v158.6c0 30-24.3 54.3-54.2 54.3z" fill="#9B5C77" /><path d="M716.7 872.8H309.3c-34.9 0-63.3-28.4-63.3-63.3V650.9c0-5 4-9 9-9h515.9c5 0 9 4 9 9v158.6c0 34.9-28.3 63.3-63.2 63.3zM264.1 659.9v149.6c0 25 20.3 45.3 45.3 45.3h407.3c25 0 45.3-20.3 45.3-45.3V659.9H264.1z" fill="#3E4152" /><path d="M406.6 737.9h-91.9c-5 0-9-4-9-9s4-9 9-9h91.9c5 0 9 4 9 9s-4.1 9-9 9zM711.4 737.9h-91.9c-5 0-9-4-9-9s4-9 9-9h91.9c5 0 9 4 9 9s-4.1 9-9 9z" fill="#3E4152" /><path d="M770.9 318.9H255.1v-42.4c0-36 29.2-65.2 65.2-65.2h385.5c36 0 65.2 29.2 65.2 65.2v42.4z" fill="#8599A4" /><path d="M770.9 327.9H255.1c-5 0-9-4-9-9v-42.4c0-40.9 33.3-74.2 74.2-74.2h385.5c40.9 0 74.2 33.3 74.2 74.2v42.4c-0.1 5-4.1 9-9.1 9z m-506.8-18H762v-33.4c0-31-25.2-56.2-56.2-56.2H320.2c-31 0-56.2 25.2-56.2 56.2v33.4z" fill="#3E4152" /><path d="M513 659.9c-5 0-9-4-9-9v-332c0-5 4-9 9-9s9 4 9 9v332c0 4.9-4 9-9 9z" fill="#3E4152" /><path d="M820.2 872.8c-2.6 0-5.2-1.1-6.9-3.3-3.2-3.8-2.6-9.5 1.2-12.7 108.9-90.2 171.3-222.9 171.3-364.2 0-63.8-12.5-125.7-37.1-184-23.8-56.3-57.9-106.8-101.3-150.3C803.8 115 753.3 81 697 57.1 638.7 32.5 576.8 20 513 20S387.3 32.5 329 57.1C272.7 81 222.2 115 178.7 158.5c-43.4 43.4-77.5 94-101.3 150.3-24.6 58.3-37.1 120.2-37.1 184 0 141.2 62.4 273.9 171.3 364.2 3.8 3.2 4.4 8.8 1.2 12.7-3.2 3.8-8.8 4.4-12.7 1.2-113-93.6-177.8-231.4-177.8-378 0-66.2 13-130.5 38.6-191 24.7-58.4 60.1-110.9 105.2-156 45.1-45.1 97.5-80.4 156-105.2C382.5 15 446.8 2 513 2s130.5 13 191 38.6c58.4 24.7 110.9 60.1 156 105.2 45.1 45.1 80.4 97.5 105.2 156 25.6 60.5 38.6 124.8 38.6 191 0 146.6-64.8 284.4-177.8 378-1.8 1.3-3.8 2-5.8 2z" fill="#3E4152" /></svg>