<?xml version="1.0" encoding="utf-8"?>
<!-- Uploaded to: SVG Repo, www.svgrepo.com, Generator: SVG Repo Mixer Tools -->
<svg width="800px" height="800px" viewBox="0 0 1024 1024" class="icon"  version="1.1" xmlns="http://www.w3.org/2000/svg"><path d="M370.8 871.7h-141c-14.8 0-26.7-12-26.7-26.7v-60.6h194.4V845c0 14.7-11.9 26.7-26.7 26.7z" fill="#8599A4" /><path d="M370.8 880.7h-141c-19.7 0-35.7-16-35.7-35.7v-69.6h212.4V845c0 19.7-16 35.7-35.7 35.7z m-158.7-87.3V845c0 9.8 7.9 17.7 17.7 17.7h141c9.8 0 17.7-7.9 17.7-17.7v-51.6H212.1z" fill="#3E4152" /><path d="M748.9 871.7h-141c-14.8 0-26.7-12-26.7-26.7v-60.6h194.4V845c0 14.7-11.9 26.7-26.7 26.7z" fill="#8599A4" /><path d="M748.9 880.7h-141c-19.7 0-35.7-16-35.7-35.7v-69.6h212.4V845c0 19.7-16 35.7-35.7 35.7z m-158.7-87.3V845c0 9.8 7.9 17.7 17.7 17.7h141c9.8 0 17.7-7.9 17.7-17.7v-51.6H590.2z" fill="#3E4152" /><path d="M859.3 450.9H160.6l131-196.8h436.7z" fill="#9B5C77" /><path d="M859.3 459.9H160.6c-3.3 0-6.4-1.8-7.9-4.8-1.6-2.9-1.4-6.5 0.4-9.2l131-196.8c1.7-2.5 4.5-4 7.5-4h436.7c3 0 5.8 1.5 7.5 4l131 196.8c1.8 2.8 2 6.3 0.4 9.2-1.5 3-4.6 4.8-7.9 4.8z m-681.9-18h665.1l-119-178.8H296.4l-119 178.8z" fill="#3E4152" /><path d="M626.7 254.1H393.2l48.6-111.3h136.3z" fill="#C1E7D8" /><path d="M626.7 263.1H393.2c-3 0-5.9-1.5-7.5-4.1s-1.9-5.7-0.7-8.5l48.6-111.3c1.4-3.3 4.7-5.4 8.2-5.4H578c3.6 0 6.8 2.1 8.2 5.4L635 250.5c1.2 2.8 0.9 6-0.7 8.5a9.1 9.1 0 0 1-7.6 4.1z m-219.7-18h206l-40.8-93.3H447.7L407 245.1z" fill="#3E4152" /><path d="M902.7 404.8l-46.1 46.1H157.9l-40.6-46.1h-102v87.3h72.8l43.4 31.5-2.1 200c-0.3 33.1 26.4 60 59.4 60h638.1c32.6 0 59.1-26.2 59.4-58.8l2.1-201.3 43.4-31.5h72.8v-87.3H902.7z" fill="#C1E7D8" /><path d="M826.9 792.8H188.8c-18.4 0-35.7-7.2-48.6-20.3-12.9-13.1-20-30.4-19.8-48.8l2-195.4-37.2-27.1H15.3c-5 0-9-4-9-9v-87.3c0-5 4-9 9-9h101.9c2.6 0 5 1.1 6.8 3l38 43.1h691l43.5-43.5c1.7-1.7 4-2.6 6.4-2.6h101.9c5 0 9 4 9 9v87.3c0 5-4 9-9 9h-69.9l-37.3 27.2-2.1 196.7c-0.6 37.3-31.3 67.7-68.6 67.7zM24.3 483.2h63.8c1.9 0 3.8 0.6 5.3 1.7l43.4 31.5c2.4 1.7 3.7 4.5 3.7 7.4l-2.1 200c-0.1 13.6 5 26.3 14.6 36 9.5 9.6 22.3 15 35.8 15h638.1c27.5 0 50.1-22.4 50.4-49.9l2.1-201.3c0-2.8 1.4-5.5 3.7-7.2l43.4-31.5c1.5-1.1 3.4-1.7 5.3-1.7h63.8v-69.3h-89.2L863 457.3c-1.7 1.7-4 2.6-6.4 2.6H157.9c-2.6 0-5-1.1-6.8-3l-38-43.1H24.3v69.4z" fill="#3E4152" /><path d="M345 603.3H243.1c-3.1 0-6-1.6-7.6-4.2l-34-53.6c-2.7-4.2-1.4-9.8 2.8-12.4 4.2-2.7 9.8-1.4 12.4 2.8l31.3 49.4h97c5 0 9 4 9 9s-4.1 9-9 9zM776.8 603.3H674.9c-5 0-9-4-9-9s4-9 9-9h96.9l31.3-49.4c2.7-4.2 8.2-5.4 12.4-2.8 4.2 2.7 5.4 8.2 2.8 12.4l-34 53.6c-1.5 2.6-4.4 4.2-7.5 4.2z" fill="#3E4152" /><path d="M660.4 709.8H359.5c-5 0-9-4-9-9s4-9 9-9h300.8c5 0 9 4 9 9s-4 9-8.9 9z" fill="#3E4152" /></svg>