<?xml version="1.0" encoding="utf-8"?>
<!-- Uploaded to: SVG Repo, www.svgrepo.com, Generator: SVG Repo Mixer Tools -->
<svg width="800px" height="800px" viewBox="0 0 1024 1024" class="icon"  version="1.1" xmlns="http://www.w3.org/2000/svg"><path d="M232.2 927.5m-79.5 0a79.5 79.5 0 1 0 159 0 79.5 79.5 0 1 0-159 0Z" fill="#8599A4" /><path d="M232.2 1015.9c-48.8 0-88.5-39.7-88.5-88.5s39.7-88.5 88.5-88.5 88.5 39.7 88.5 88.5-39.7 88.5-88.5 88.5z m0-158.9c-38.9 0-70.5 31.6-70.5 70.5s31.6 70.5 70.5 70.5 70.5-31.6 70.5-70.5-31.6-70.5-70.5-70.5z" fill="#3E4152" /><path d="M391.2 927.5m-79.5 0a79.5 79.5 0 1 0 159 0 79.5 79.5 0 1 0-159 0Z" fill="#8599A4" /><path d="M391.2 1015.9c-48.8 0-88.5-39.7-88.5-88.5s39.7-88.5 88.5-88.5 88.5 39.7 88.5 88.5-39.7 88.5-88.5 88.5z m0-158.9c-38.9 0-70.5 31.6-70.5 70.5s31.6 70.5 70.5 70.5 70.5-31.6 70.5-70.5S430 857 391.2 857z" fill="#3E4152" /><path d="M550.1 927.5m-79.5 0a79.5 79.5 0 1 0 159 0 79.5 79.5 0 1 0-159 0Z" fill="#8599A4" /><path d="M550.1 1015.9c-48.8 0-88.5-39.7-88.5-88.5s39.7-88.5 88.5-88.5 88.5 39.7 88.5 88.5-39.7 88.5-88.5 88.5z m0-158.9c-38.9 0-70.5 31.6-70.5 70.5s31.6 70.5 70.5 70.5 70.5-31.6 70.5-70.5S589 857 550.1 857z" fill="#3E4152" /><path d="M709 927.5m-79.5 0a79.5 79.5 0 1 0 159 0 79.5 79.5 0 1 0-159 0Z" fill="#8599A4" /><path d="M709 1015.9c-48.8 0-88.5-39.7-88.5-88.5S660.3 839 709 839s88.5 39.7 88.5 88.5-39.7 88.4-88.5 88.4z m0-158.9c-38.9 0-70.5 31.6-70.5 70.5S670.1 998 709 998s70.5-31.6 70.5-70.5S747.9 857 709 857z" fill="#3E4152" /><path d="M996 722.2c0-62.2-50.4-112.6-112.6-112.6H826l-13.2-73.9 39.7-83.9H700.2l39.7 83.9-13.2 73.9H479.5v-44.1h53v-71.1c0-33.9-27.5-61.3-61.3-61.3h-385c-33.9 0-61.3 27.5-61.3 61.3v71.1h70.6v339.9h796.8l-24.1-70.6h15.3c62.1 0 112.5-50.4 112.5-112.6z" fill="#C1E7D8" /><path d="M892.3 914.4H95.4c-5 0-9-4-9-9V574.5H24.7c-5 0-9-4-9-9v-71.1c0-38.8 31.6-70.3 70.3-70.3h385c38.8 0 70.3 31.6 70.3 70.3v71.1c0 5-4 9-9 9h-44v26.1H719l11.4-63.7-38.5-81.3c-1.3-2.8-1.1-6.1 0.5-8.7 1.7-2.6 4.5-4.2 7.6-4.2h152.3c3.1 0 6 1.6 7.6 4.2 1.6 2.6 1.8 5.9 0.5 8.7l-38.5 81.3 11.4 63.7h49.9c67 0 121.6 54.5 121.6 121.6s-54.5 121.6-121.6 121.6h-2.7l20.1 58.7c0.9 2.7 0.5 5.8-1.2 8.1s-4.2 3.8-7.1 3.8z m-787.9-18h775.3l-20.1-58.7c-0.9-2.7-0.5-5.8 1.2-8.1s4.4-3.8 7.3-3.8h15.3c57.1 0 103.6-46.5 103.6-103.6s-46.5-103.6-103.6-103.6H826c-4.4 0-8.1-3.1-8.9-7.4l-13.2-73.9c-0.3-1.8-0.1-3.7 0.7-5.4l33.6-71H714.4l33.6 71c0.8 1.7 1.1 3.6 0.7 5.4l-13.2 73.9c-0.8 4.3-4.5 7.4-8.9 7.4H479.5c-5 0-9-4-9-9v-44.1c0-5 4-9 9-9h44v-62.1c0-28.9-23.5-52.3-52.3-52.3h-385c-28.9 0-52.3 23.5-52.3 52.3v62.1h61.6c5 0 9 4 9 9v330.9z" fill="#3E4152" /><path d="M391.2 710.6H181.6V558.8h209.6z" fill="#9B5C77" /><path d="M391.2 719.6H181.6c-5 0-9-4-9-9V558.8c0-5 4-9 9-9h209.5c5 0 9 4 9 9v151.8c0.1 5-4 9-8.9 9z m-200.6-18h191.5V567.8H190.6v133.8z" fill="#3E4152" /><path d="M286.4 719.6c-5 0-9-4-9-9V558.8c0-5 4-9 9-9s9 4 9 9v151.8c0 5-4 9-9 9zM614.1 618.6c-5 0-9-4-9-9v-63.2c0-5 4-9 9-9s9 4 9 9v63.2c0 5-4 9-9 9z" fill="#3E4152" /><path d="M641.7 551.3h-55.2c-5 0-9-4-9-9s4-9 9-9h55.2c5 0 9 4 9 9s-4 9-9 9z" fill="#3E4152" /><path d="M788.3 184.5c0-0.7 0.2-1.4 0.2-2 0-39.6-53.4-71.7-119.2-71.7-14.2 0-27.8 1.6-40.4 4.3 0.4-3.2 0.7-6.5 0.7-9.8 0-49.4-47.2-89.4-105.4-89.4-36.9 0-69.3 16.1-88.1 40.4-21.4-17-48.5-27.2-78-27.2-69.5 0-125.8 56.3-125.8 125.8s56.3 125.8 125.8 125.8c21 0 40.7-5.2 58.1-14.3 23.5 27.6 58.4 45.2 97.5 45.2 46.9 0 87.7-25.3 110.1-62.8 12 3 25 4.8 38.6 5.2-1.2 6.5-1.8 13.2-1.8 20.1 0 54.9 40 99.3 89.4 99.3s89.4-44.5 89.4-99.3c-0.1-39.6-21-73.6-51.1-89.6z" fill="#ACD8CB" /><path d="M749.9 382.4c-54.3 0-98.4-48.6-98.4-108.3 0-3.9 0.2-7.8 0.6-11.7-8.3-0.7-16.3-1.8-24.1-3.5-11.6 17.6-27.3 32.4-45.5 43.1-20.8 12.1-44.6 18.6-68.8 18.6-37.9 0-73.8-15.6-99.7-43.1-17.6 8.1-36.4 12.2-55.9 12.2-74.3 0-134.8-60.5-134.8-134.8S283.7 20.1 358.1 20.1c27.7 0 54 8.2 76.6 23.9 21.6-23.4 54.4-37.2 89.5-37.2 62.7 0 113.7 43.5 114.4 97.3 10.1-1.6 20.4-2.4 30.7-2.4 33.5 0 65 7.9 88.9 22.3 24.1 14.5 37.9 34.1 39.2 55.3 14.4 8.8 26.6 21.3 35.5 36.6 10.1 17.3 15.4 37.5 15.4 58.1 0 59.8-44.2 108.4-98.4 108.4zM623.7 239.8c0.7 0 1.5 0.1 2.2 0.3 11.4 2.9 23.8 4.5 36.7 5 2.6 0.1 5.1 1.3 6.7 3.4 1.6 2 2.3 4.7 1.8 7.3-1.1 6-1.7 12.2-1.7 18.4 0 49.8 36.1 90.3 80.4 90.3s80.4-40.5 80.4-90.3c0-34.7-18.1-66.7-46.2-81.6-3.1-1.6-4.9-4.9-4.8-8.4 0-0.5 0.1-1 0.1-1.5v-0.2c-0.1-15.8-10.9-31.1-30.6-42.9-21.1-12.7-49.4-19.7-79.6-19.7-13 0-25.9 1.4-38.5 4.1-2.9 0.6-5.8-0.2-8-2.2s-3.2-4.9-2.8-7.8c0.4-3.1 0.6-5.9 0.6-8.7 0-44.3-43.2-80.4-96.4-80.4-32.8 0-63.1 13.8-81 36.9-1.5 1.9-3.6 3.1-6 3.4-2.4 0.3-4.8-0.4-6.7-1.9-20.9-16.5-45.9-25.2-72.4-25.2-64.4 0-116.8 52.4-116.8 116.8s52.4 116.8 116.8 116.8c18.9 0 37.1-4.5 53.9-13.3 3.7-1.9 8.3-1.1 11 2.1 22.7 26.7 55.8 42 90.7 42 21 0 41.7-5.6 59.7-16.1 17.5-10.2 32.2-24.9 42.6-42.3 1.8-2.7 4.8-4.3 7.9-4.3z" fill="#3E4152" /></svg>