<?xml version="1.0" encoding="utf-8"?>
<!-- Uploaded to: SVG Repo, www.svgrepo.com, Generator: SVG Repo Mixer Tools -->
<svg width="800px" height="800px" viewBox="0 0 1024 1024" class="icon"  version="1.1" xmlns="http://www.w3.org/2000/svg"><path d="M929 691.1H29.8V339.4c0-41.1 33.3-74.4 74.4-74.4H859c73.9 0 133.8 59.9 133.8 133.8v228.4c0.1 35.3-28.6 63.9-63.8 63.9z" fill="#C1E7D8" /><path d="M929 700.1H29.8c-5 0-9-4-9-9V339.4c0-46 37.4-83.4 83.4-83.4H859c78.8 0 142.8 64.1 142.8 142.8v228.4c0.1 40.2-32.6 72.9-72.8 72.9z m-890.2-18H929c30.3 0 54.9-24.6 54.9-54.9V398.8c0-68.8-56-124.8-124.8-124.8H104.2c-36.1 0-65.4 29.3-65.4 65.4v342.7z" fill="#3E4152" /><path d="M992.9 444h-963V343.2c0-43.2 35-78.2 78.2-78.2h747.5c75.9 0 137.3 61.5 137.3 137.3V444z" fill="#9B5C77" /><path d="M992.9 453h-963c-5 0-9-4-9-9V343.2c0-48.1 39.1-87.2 87.2-87.2h747.5c80.7 0 146.3 65.6 146.3 146.3V444c0 4.9-4.1 9-9 9zM38.8 435h945v-32.6c0-70.8-57.6-128.3-128.3-128.3H108c-38.1 0-69.2 31-69.2 69.2V435z" fill="#3E4152" /><path d="M196 453c-5 0-9-4-9-9V265c0-5 4-9 9-9s9 4 9 9v179c0 4.9-4 9-9 9zM357.9 453c-5 0-9-4-9-9V265c0-5 4-9 9-9s9 4 9 9v179c0 4.9-4 9-9 9zM511.3 453c-5 0-9-4-9-9V265c0-5 4-9 9-9s9 4 9 9v179c0 4.9-4 9-9 9zM664.7 453c-5 0-9-4-9-9V265c0-5 4-9 9-9s9 4 9 9v179c0 4.9-4 9-9 9z" fill="#3E4152" /><path d="M992.9 461h-93.7s-87-196-36.6-196h-10.3c77.7 0 140.6 63 140.6 140.6V461z" fill="#C1E7D8" /><path d="M992.9 470h-93.7c-3.6 0-6.8-2.1-8.2-5.3-0.2-0.4-17.8-40.1-32.4-83.4-8.7-25.6-14.7-47.5-17.9-65-4.4-24.4-3.5-40.3 2.8-50.1-0.1-0.4-0.1-0.8-0.1-1.2 0-5 4-9 9-9h10.3c1.1 0 2.2 0.2 3.2 0.6 76.2 6.8 136.1 71.1 136.1 149V461c-0.1 5-4.2 9-9.1 9zM905 452h78.8v-46.4c0-69.8-54.6-127.1-123.4-131.4-1 0.3-1.5 0.9-2 1.7-2.6 4-9 22.9 17 99.6 11.4 33.3 24.4 64.4 29.6 76.5z" fill="#3E4152" /><path d="M158.4 691.1m-67.5 0a67.5 67.5 0 1 0 135 0 67.5 67.5 0 1 0-135 0Z" fill="#8599A4" /><path d="M158.4 767.6c-42.2 0-76.5-34.3-76.5-76.5s34.3-76.5 76.5-76.5 76.5 34.3 76.5 76.5-34.4 76.5-76.5 76.5z m0-134.9c-32.2 0-58.5 26.2-58.5 58.5s26.2 58.5 58.5 58.5 58.5-26.2 58.5-58.5-26.3-58.5-58.5-58.5z" fill="#3E4152" /><path d="M293.3 691.1m-67.5 0a67.5 67.5 0 1 0 135 0 67.5 67.5 0 1 0-135 0Z" fill="#8599A4" /><path d="M293.3 767.6c-42.2 0-76.5-34.3-76.5-76.5s34.3-76.5 76.5-76.5 76.5 34.3 76.5 76.5-34.3 76.5-76.5 76.5z m0-134.9c-32.2 0-58.5 26.2-58.5 58.5s26.2 58.5 58.5 58.5c32.2 0 58.5-26.2 58.5-58.5s-26.3-58.5-58.5-58.5z" fill="#3E4152" /><path d="M846.8 691.1m-67.5 0a67.5 67.5 0 1 0 135 0 67.5 67.5 0 1 0-135 0Z" fill="#8599A4" /><path d="M846.8 767.6c-42.2 0-76.5-34.3-76.5-76.5s34.3-76.5 76.5-76.5 76.5 34.3 76.5 76.5-34.3 76.5-76.5 76.5z m0-134.9c-32.2 0-58.5 26.2-58.5 58.5s26.2 58.5 58.5 58.5 58.5-26.2 58.5-58.5-26.3-58.5-58.5-58.5z" fill="#3E4152" /></svg>